<svg xmlns="http://www.w3.org/2000/svg" viewBox="0 0 900 430" role="img" aria-labelledby="title desc">
<title id="title">Wearable sensing: connecting human movement to a robot</title><desc id="desc">Conceptual side view of a walking person, highlighted wearable sensing locations, and a robot assistance loop. This is not a photograph of the experimental apparatus.</desc>
<rect width="900" height="430" rx="18" fill="#edf3f7"/>
<g font-family="Arial,sans-serif" fill="#233e52"><text x="36" y="44" font-size="15" letter-spacing="2">THE HUMAN COMES FIRST</text><text x="36" y="82" font-size="28" font-weight="bold">What is the person doing?</text>
<circle cx="240" cy="142" r="23" fill="#36566d"/>
<g fill="none" stroke-linecap="round" stroke-linejoin="round"><path d="M238 181 L224 254 L174 300 L155 366 L183 366 M224 254 L275 303 L300 361 L330 361 M237 188 L195 220 L157 213 M237 188 L270 220 L305 214" stroke="#36566d" stroke-width="14"/>
<path d="M275 297 L300 355 L328 355" stroke="#2b9e8b" stroke-width="6"/><path d="M120 380 H370" stroke="#c0ced9" stroke-width="2"/>
<path d="M312 352 L415 287 H475 M170 356 L408 346 H475" stroke="#2b9e8b" stroke-width="2"/></g>
<rect x="299" y="341" width="22" height="14" rx="4" fill="#2b9e8b"/><rect x="157" y="349" width="22" height="14" rx="4" fill="#2b9e8b"/>
<text x="485" y="278" font-size="21" font-weight="bold">Observe movement</text><text x="485" y="304" font-size="17">Wearable signals describe how the body moves.</text><text x="485" y="345" font-size="21" font-weight="bold">Connect to assistance</text><text x="485" y="371" font-size="17">Recognized context can inform robot control.</text>
<text x="485" y="162" font-size="18" fill="#597285">Sense → recognize → support</text>
<text x="36" y="413" font-size="13" fill="#597285">Concept illustration · Sensor placement and robot geometry are schematic.</text></g></svg>
